<svg width="173" height="40" viewBox="0 0 173 40" fill="none" xmlns="http://www.w3.org/2000/svg">
    <g>
        <path d="M29.7146 8.79297H42.0984V12.2068H33.4298V17.2099H41.8033V20.6237H33.4298V26.5686H42.3932V29.9823H29.7146V8.79297Z" fill="#0E1521"></path>
        <path d="M48.3455 29.9823H44.8074V8.79297H48.3455V29.9823Z" fill="#0E1521"></path>
        <path d="M62.9019 16.3007C63.344 17.1248 63.58 18.1254 63.58 19.8617V26.3067C63.58 26.9543 63.8455 27.2485 64.3467 27.2485C64.5531 27.2485 64.7004 27.2485 64.9068 27.219V30.1915C64.6709 30.2505 63.9633 30.3388 63.58 30.3388C61.8108 30.3388 60.5431 29.4852 60.1303 27.8371L60.0419 27.4841C59.0394 29.2205 57.5946 30.3388 55.3833 30.3388C52.3757 30.3388 50.4004 28.6612 50.4004 26.0124C50.4004 23.3637 52.1105 22.0101 55.5897 21.3038L58.6562 20.6858C59.5995 20.5092 60.0419 20.1266 60.0419 19.2143C60.0419 17.7722 59.0099 16.8893 57.2998 16.8893C55.5309 16.8893 54.5577 17.6839 54.3218 18.9788L50.8132 18.7434C51.1376 15.977 53.5553 13.7109 57.4473 13.7109C60.0419 13.7109 62.0172 14.6527 62.9019 16.3007ZM60.0419 22.4515C59.7175 22.6575 59.3931 22.8047 58.4202 23.0696L56.3269 23.6287C54.5577 24.0996 53.909 24.8648 53.909 25.8064C53.909 26.8365 54.7346 27.3663 56.0614 27.3663C57.9486 27.3663 60.0419 26.0714 60.0419 23.1873V22.4515Z" fill="#0E1521"></path>
        <path d="M71.9291 30.3388C68.391 30.3388 66.5629 28.6612 65.6489 26.6012L68.5385 24.7176C69.2166 26.2185 70.2486 27.1603 71.9882 27.1603C73.2855 27.1603 73.8458 26.4835 73.8458 25.7772C73.8458 25.1001 73.3444 24.5706 72.1062 23.9819L69.541 22.7753C67.3294 21.7452 66.2681 20.3032 66.2681 18.3608C66.2681 15.9181 68.391 13.7109 71.3099 13.7109C74.052 13.7109 75.6148 15.1236 76.4993 16.5656L73.8163 18.6257C73.2559 17.7428 72.4895 16.8893 71.2806 16.8893C70.2779 16.8893 69.5998 17.4485 69.5998 18.1842C69.5998 18.7728 69.9538 19.2437 70.7794 19.6263L73.4919 20.8623C75.9685 21.9807 77.2364 23.4227 77.2364 25.7182C77.2364 28.4846 74.9956 30.3388 71.9291 30.3388Z" fill="#0E1521"></path>
        <path d="M83.9588 17.2425V29.9855H80.4206V17.2425H77.4722V14.0641H80.4206V10.8269L83.9588 10.2383V14.0641H86.9072V17.2425H83.9588Z" fill="#0E1521"></path>
        <path d="M89.8724 8.5C91.1108 8.5 91.9364 9.32402 91.9364 10.5601C91.9364 11.7961 91.1108 12.6202 89.8724 12.6202C88.634 12.6202 87.8083 11.7961 87.8083 10.5601C87.8083 9.32402 88.634 8.5 89.8724 8.5ZM91.6415 29.9836H88.1034V14.0622H91.6415V29.9836Z" fill="#0E1521"></path>
        <path d="M93.5989 22.0395C93.5989 17.2131 97.2845 13.7109 101.884 13.7109C105.658 13.7109 107.81 15.5356 108.901 17.9194L105.923 19.6557C105.068 18.0665 103.83 17.0071 101.914 17.0071C99.1715 17.0071 97.1959 19.1554 97.1959 22.0395C97.1959 24.8941 99.1715 27.0425 101.914 27.0425C103.978 27.0425 105.216 25.9537 106.012 24.0407L109.196 25.3944C108.223 28.2786 105.835 30.3388 101.884 30.3388C97.1959 30.3388 93.5989 26.8365 93.5989 22.0395Z" fill="#0E1521"></path>
        <path d="M121.815 21.8597V29.9823H118.1V8.79297H126.178C130.808 8.79297 133.432 11.4711 133.432 15.3264C133.432 19.1817 130.808 21.8597 125.883 21.8597L121.815 21.8597ZM121.815 12.2068V18.4459H125.883C128.213 18.4459 129.481 17.2099 129.481 15.3264C129.481 13.4429 128.242 12.2068 126.06 12.2068H121.815Z" fill="#0E1521"></path>
        <path d="M146.499 16.3007C146.941 17.1248 147.177 18.1254 147.177 19.8617V26.3067C147.177 26.9543 147.442 27.2485 147.944 27.2485C148.15 27.2485 148.298 27.2485 148.504 27.219V30.1915C148.268 30.2505 147.56 30.3388 147.177 30.3388C145.408 30.3388 144.14 29.4852 143.727 27.8371L143.639 27.4841C142.637 29.2205 141.192 30.3388 138.98 30.3388C135.973 30.3388 133.998 28.6612 133.998 26.0124C133.998 23.3637 135.708 22.0101 139.187 21.3038L142.253 20.6858C143.197 20.5092 143.639 20.1266 143.639 19.2143C143.639 17.7722 142.607 16.8893 140.897 16.8893C139.128 16.8893 138.155 17.6839 137.919 18.9788L134.41 18.7434C134.735 15.977 137.152 13.7109 141.044 13.7109C143.639 13.7109 145.614 14.6527 146.499 16.3007ZM143.639 22.4515C143.315 22.6575 142.99 22.8047 142.017 23.0696L139.924 23.6287C138.155 24.0996 137.506 24.8648 137.506 25.8064C137.506 26.8365 138.332 27.3663 139.659 27.3663C141.545 27.3663 143.639 26.0714 143.639 23.1873V22.4515Z" fill="#0E1521"></path>
        <path d="M154.74 17.2425V29.9855H151.201V17.2425H148.253V14.0641H151.201V10.8269L154.74 10.2383V14.0641H157.688V17.2425H154.74Z" fill="#0E1521"></path>
        <path d="M171.946 17.3276C172.153 18.181 172.182 18.8874 172.182 20.3588V29.9823H168.644V21.1829C168.644 20.2117 168.614 19.7114 168.526 19.1817C168.231 17.769 167.346 16.9744 165.813 16.9744C164.162 16.9744 163.071 17.8867 162.659 19.2699C162.541 19.6819 162.423 20.1528 162.423 21.4183V29.9823H158.885V8.79297H162.423V16.5624C163.307 15.0026 164.87 13.7077 167.111 13.7077C169.735 13.7077 171.415 15.2381 171.946 17.3276Z" fill="#0E1521"></path>
    </g>
    <g>
        <path d="M6.61743 25.2227L6.63121 25.2364C6.63305 25.2319 6.63486 25.2272 6.6367 25.2227H6.61743Z" fill="#2BCC7E"></path>
        <path d="M17.0588 14.7759H6.61738L14.0006 7.38796L6.61738 0L0 6.62164L3.55711 10.1811C4.9092 11.534 5.92494 13.0961 6.60461 14.7631C6.60884 14.7735 6.61318 14.7839 6.61738 14.7943C7.9681 18.1304 7.97428 21.884 6.6363 25.2241H17.0588V14.7759Z" fill="#2BCC7E"></path>
        <path d="M0.0356396 33.4091H0.0300293L6.61731 40.0007L14.0005 32.6127L6.63084 25.2383C5.95119 26.9298 4.92672 28.5149 3.55705 29.8854L0.0356396 33.4091Z" fill="#2BCC7E"></path>
    </g>
</svg>
