<?xml version="1.0" encoding="UTF-8"?> <svg xmlns="http://www.w3.org/2000/svg" id="som-logo" viewBox="0 0 250 22"><style>.st0{fill:#ff5a10}.st1,.st2{fill:#08204a}.st2{fill-rule:evenodd;clip-rule:evenodd}</style><g id="online-marketing"><path class="st0" d="M103.44 5.51c3.53 0 5.09 2.74 5.09 5.71s-1.56 5.71-5.09 5.71-5.09-2.74-5.09-5.71 1.56-5.71 5.09-5.71zm0 10.26c2.35 0 3.61-2.03 3.61-4.56s-1.26-4.56-3.61-4.56c-2.35 0-3.61 2.03-3.61 4.56s1.26 4.56 3.61 4.56zM111.08 8.33c0-.83 0-1.69-.09-2.57h1.3v1.95h.04c.45-.98 1.26-2.2 3.53-2.2 2.7 0 3.72 1.8 3.72 4.19v6.97h-1.35v-6.63c0-2.05-.73-3.38-2.59-3.38-2.46 0-3.23 2.16-3.23 3.98v6.03h-1.35V8.33zM122.97.63h1.35v16.04h-1.35V.63zM129.07 2.85h-1.35v-1.8h1.35v1.8zm-1.35 2.91h1.35v10.91h-1.35V5.76zM132.47 8.33c0-.83 0-1.69-.09-2.57h1.3v1.95h.04c.45-.98 1.26-2.2 3.53-2.2 2.7 0 3.72 1.8 3.72 4.19v6.97h-1.35v-6.63c0-2.05-.73-3.38-2.59-3.38-2.46 0-3.23 2.16-3.23 3.98v6.03h-1.35V8.33zM151.67 16.33c-.94.38-2.16.6-3.17.6-3.61 0-4.96-2.44-4.96-5.71 0-3.34 1.84-5.71 4.6-5.71 3.08 0 4.34 2.48 4.34 5.41v.68h-7.47c0 2.31 1.24 4.17 3.59 4.17.98 0 2.42-.41 3.06-.81v1.37zm-.66-5.88c0-1.9-.77-3.79-2.78-3.79-1.99 0-3.21 1.99-3.21 3.79h5.99zM174.18 16.67V9.42c0-1.54-.58-2.76-2.31-2.76-1.48 0-2.93 1.26-2.93 3.98v6.03h-1.35V9.42c0-1.54-.58-2.76-2.31-2.76-1.48 0-2.93 1.26-2.93 3.98v6.03H161V8.33c0-.83 0-1.69-.09-2.57h1.3V7.6l.04.02c.43-.75 1.07-2.12 3.4-2.12.96 0 2.55.41 2.89 2.31h.04c.49-1.28 1.78-2.31 3.49-2.31 2.2 0 3.44 1.54 3.44 3.66v7.51h-1.33zM185.08 14.92h-.04c-.6 1.3-2.12 2.01-3.47 2.01-3.1 0-3.59-2.1-3.59-3.08 0-3.66 3.89-3.83 6.72-3.83h.26v-.56c0-1.86-.66-2.8-2.48-2.8-1.13 0-2.2.26-3.21.9v-1.3c.83-.41 2.25-.75 3.21-.75 2.7 0 3.83 1.22 3.83 4.06v4.81c0 .88 0 1.54.11 2.29h-1.33v-1.75zm-.12-3.74h-.39c-2.33 0-5.11.24-5.11 2.63 0 1.43 1.03 1.97 2.27 1.97 3.17 0 3.23-2.76 3.23-3.94v-.66zM189.51 8.2c0-1.2 0-1.65-.09-2.44h1.35v2.1h.04c.49-1.22 1.41-2.35 2.8-2.35.32 0 .71.06.94.13v1.41c-.28-.09-.64-.13-.98-.13-2.14 0-2.72 2.4-2.72 4.36v5.39h-1.35V8.2zM196.63.63h1.35v9.6l4.88-4.47h1.73l-5.33 4.83 5.97 6.07h-1.86l-5.39-5.6v5.6h-1.35V.63zM214.22 16.33c-.94.38-2.16.6-3.17.6-3.61 0-4.96-2.44-4.96-5.71 0-3.34 1.84-5.71 4.6-5.71 3.08 0 4.34 2.48 4.34 5.41v.68h-7.47c0 2.31 1.24 4.17 3.59 4.17.98 0 2.42-.41 3.06-.81v1.37zm-.67-5.88c0-1.9-.77-3.79-2.78-3.79-1.99 0-3.21 1.99-3.21 3.79h5.99zM222.3 6.92h-2.48v7.06c0 .98.36 1.8 1.45 1.8.51 0 .86-.11 1.24-.26l.09 1.11c-.32.13-.98.3-1.65.3-2.4 0-2.48-1.65-2.48-3.64V6.92h-2.14V5.76h2.14V3.13l1.35-.47v3.1h2.48v1.16zM226.07 2.85h-1.35v-1.8h1.35v1.8zm-1.35 2.91h1.35v10.91h-1.35V5.76zM229.47 8.33c0-.83 0-1.69-.09-2.57h1.3v1.95h.04c.45-.98 1.26-2.2 3.53-2.2 2.7 0 3.72 1.8 3.72 4.19v6.97h-1.35v-6.63c0-2.05-.73-3.38-2.59-3.38-2.46 0-3.23 2.16-3.23 3.98v6.03h-1.35V8.33zM250 15.77c0 3.04-1.37 5.52-5.11 5.52-1.43 0-2.74-.41-3.29-.58l.11-1.35c.83.43 2.03.77 3.21.77 3.47 0 3.76-2.52 3.76-5.6h-.04c-.73 1.58-1.93 2.14-3.32 2.14-3.49 0-4.6-3.04-4.6-5.45 0-3.32 1.28-5.71 4.49-5.71 1.45 0 2.4.19 3.4 1.5h.04V5.76H250v10.01zm-4.66-.25c2.44 0 3.32-2.31 3.32-4.3 0-2.63-.77-4.56-3.23-4.56-2.57 0-3.23 2.44-3.23 4.56-.01 2.14.85 4.3 3.14 4.3z"></path></g><g id="stroeer"><path class="st1" d="M54.39 7.06C53.76 4.62 52 3.2 51.3 2.74c-.14-.1-.28-.19-.43-.27L51.82 0h-3.83l-.53 1.38c-.42-.04-.77-.04-1.02-.04h-.11L46.85 0h-3.83l-.95 2.45c-.07.04-.13.08-.19.11a7.59 7.59 0 0 0-3.24 4.66c-.21.89-.23 1.67-.23 1.99 0 3.39 1.86 6.12 5.06 7.27 1.42.51 2.65.55 3.22.55 4.6 0 7.93-3.28 7.93-7.88.01-.97-.14-1.75-.23-2.09zm-6.76 4.81c-.21.11-.57.23-1.14.23-1.63 0-2.63-1.31-2.65-2.86 0-1.61.95-2.39 1.5-2.67.51-.25.95-.28 1.17-.28 1.14-.02 2.08.66 2.48 1.72.08.19.21.6.21 1.19 0 1.65-1.02 2.42-1.57 2.67z"></path><path class="st2" d="M76.48 10.72c.47-.17.81-.32 1.21-.59.68-.49 1.57-1.44 1.57-3.39 0-1.55-.59-2.46-.97-2.95-1.08-1.42-2.65-1.89-4.36-1.99-.45-.04-.89-.04-1.34-.04H66.4v14.96h5.13v-5.49l2.78 5.49h5.81l-3.64-6zM73.72 7.8c-.34.51-.91.53-1.46.53h-.74V5.81h.72c.21 0 1.7-.13 1.7 1.23-.01.38-.13.63-.22.76zM35.21 10.72c.47-.17.81-.32 1.21-.59.68-.49 1.57-1.44 1.57-3.39 0-1.55-.59-2.46-.97-2.95-1.08-1.42-2.65-1.89-4.37-1.99-.44-.04-.89-.04-1.33-.04h-6.19v14.96h5.13v-5.49l2.78 5.49h5.81l-3.64-6zM32.46 7.8c-.34.51-.91.53-1.46.53h-.74V5.81h.72c.21 0 1.7-.13 1.7 1.23-.01.38-.14.63-.22.76z"></path><path class="st1" d="M24.21 1.76H12.75v4.49h2.96v10.47h5.51V6.25h2.99V1.76zM55.34 1.76v14.96h10.19v-4.18h-5.1v-1.39H65V7.16h-4.57V5.93h4.96V1.76H55.34zM12.12 2.7c-.68-.32-1.91-1-3.79-1.29-.68-.11-1.21-.13-1.46-.13-2.27 0-4.58.87-5.64 3.03-.19.38-.55 1.2-.55 2.37 0 2.67 1.97 3.58 2.86 3.9.59.19 1.57.4 2.2.51.4.08 1.08.17 1.08.78 0 .47-.49.91-1.42.91-1.34 0-2.63-.89-3.67-1.61L0 15.28c1.02.53 3.11 1.7 6.14 1.7 1.78 0 3.22-.4 4.56-1.59 1.55-1.42 1.74-2.99 1.74-3.81 0-1.02-.28-3.03-2.78-4-.63-.24-1.74-.5-2.39-.65-.43-.08-1.13-.17-1.13-.76 0-.47.4-.74 1.23-.76 1.19 0 2.16.57 3.16 1.17l1.59-3.88z"></path></g><path id="strich" class="st0" d="M88.55 1.74h.95v15h-.95z"></path></svg> 