<svg width="118" height="29" viewBox="0 0 118 29" fill="none" xmlns="http://www.w3.org/2000/svg">
<path fill-rule="evenodd" clip-rule="evenodd" d="M14.0294 21.8427H4.86574V19.0069H13.0112C13.2168 19.0069 13.3833 18.8393 13.3833 18.6321V15.4709C13.3833 15.2638 13.2168 15.096 13.0112 15.096H4.86574V12.3885H13.9022C14.1077 12.3885 14.2742 12.2208 14.2742 12.0137V8.54668C14.2742 8.33954 14.1077 8.17188 13.9022 8.17188H0.37203C0.166434 8.17188 0 8.33954 0 8.54668V25.6895C0 25.8966 0.166434 26.0643 0.37203 26.0643H14.0294C14.235 26.0643 14.4015 25.8966 14.4015 25.6895V22.2175C14.4015 22.0104 14.235 21.8427 14.0294 21.8427ZM33.4305 15.6096H26.0339C25.8136 15.6096 25.6374 15.7872 25.6374 16.0091V18.8399C25.6374 19.0619 25.8136 19.2394 26.0339 19.2394H29.1374V21.3798C29.1374 21.3995 29.1277 21.4192 29.1081 21.4291C28.3787 21.9026 27.4731 22.1541 26.2983 22.1541C23.4835 22.1541 21.4815 20.0828 21.4815 17.1927V17.1434C21.4815 14.4063 23.4591 12.2363 26.0192 12.2363C27.6395 12.2363 28.8486 12.764 30.0283 13.6961C30.185 13.8194 30.4102 13.7898 30.5374 13.6369L32.9556 10.7075C33.0878 10.5496 33.0682 10.3129 32.9067 10.1798C31.0906 8.69038 28.9514 7.8125 25.9899 7.8125C20.4877 7.8125 16.4297 11.9009 16.4297 17.1188V17.1681C16.4297 22.5881 20.5612 26.4201 26.0926 26.4201C29.2353 26.4201 31.7955 25.2759 33.6605 23.7717C33.7486 23.7026 33.7976 23.5942 33.7976 23.4807V15.9795C33.8025 15.7773 33.636 15.6096 33.4305 15.6096ZM52.9327 8.17188H48.8064C48.6006 8.17188 48.4342 8.33954 48.4342 8.54668V17.631L41.2431 8.31487C41.1747 8.2261 41.0669 8.17188 40.9495 8.17188H36.9111C36.7055 8.17188 36.5391 8.33954 36.5391 8.54668V25.6895C36.5391 25.8966 36.7055 26.0643 36.9111 26.0643H41.0378C41.2431 26.0643 41.4095 25.8966 41.4095 25.6895V16.2452L48.8797 25.9164C48.9482 26.0051 49.056 26.0593 49.1732 26.0593H52.9327C53.1384 26.0593 53.3048 25.8917 53.3048 25.6845V8.54668C53.2999 8.33954 53.1335 8.17188 52.9327 8.17188ZM99.9055 8.17188H85.0831C84.8773 8.17188 84.7109 8.33954 84.7109 8.54668V12.1419C84.7109 12.3491 84.8773 12.5167 85.0831 12.5167H90.0368V25.6895C90.0368 25.8966 90.2032 26.0643 90.409 26.0643H94.5845C94.7902 26.0643 94.9566 25.8966 94.9566 25.6895V12.566C94.9566 12.5365 94.9812 12.5167 95.0054 12.5167H99.9055C100.111 12.5167 100.278 12.3491 100.278 12.1419V8.54668C100.278 8.33954 100.111 8.17188 99.9055 8.17188ZM117.248 21.8427H108.084V19.0069H116.23C116.436 19.0069 116.602 18.8393 116.602 18.6321V15.4709C116.602 15.2638 116.436 15.096 116.23 15.096H108.084V12.3885H117.121C117.326 12.3885 117.493 12.2208 117.493 12.0137V8.54668C117.493 8.33954 117.326 8.17188 117.121 8.17188H103.591C103.385 8.17188 103.219 8.33954 103.219 8.54668V25.6895C103.219 25.8966 103.385 26.0643 103.591 26.0643H117.248C117.454 26.0643 117.62 25.8966 117.62 25.6895V22.2175C117.615 22.0104 117.449 21.8427 117.248 21.8427Z" fill="black"/>
<path fill-rule="evenodd" clip-rule="evenodd" d="M70.025 8.40867H67.984C67.8467 8.40867 67.7344 8.29522 67.7344 8.15715V0.25152C67.7344 0.113431 67.8467 0 67.984 0H70.025C70.1623 0 70.275 0.113431 70.275 0.25152V8.15715C70.275 8.29522 70.1623 8.40867 70.025 8.40867Z" fill="#32BDB5"/>
<path fill-rule="evenodd" clip-rule="evenodd" d="M74.3147 19.4615L75.3332 17.6811C75.4016 17.5628 75.5532 17.5184 75.6758 17.5874L82.4702 21.5378C82.5874 21.6068 82.6316 21.7597 82.5632 21.883L81.5447 23.6633C81.4763 23.7817 81.3246 23.8261 81.2021 23.7571L74.4077 19.8067C74.2856 19.7327 74.2462 19.5799 74.3147 19.4615Z" fill="#32BDB5"/>
<path fill-rule="evenodd" clip-rule="evenodd" d="M62.67 17.6802L63.6881 19.4606C63.7565 19.5789 63.7176 19.7368 63.595 19.8058L56.8006 23.7561C56.683 23.8252 56.5265 23.7857 56.458 23.6625L55.44 21.8821C55.3711 21.7637 55.4105 21.6059 55.533 21.5369L62.3274 17.5865C62.4446 17.5175 62.6016 17.5569 62.67 17.6802Z" fill="#32BDB5"/>
<path fill-rule="evenodd" clip-rule="evenodd" d="M81.8605 10.1546L79.7506 6.47554C79.6235 6.25853 79.3494 6.17964 79.1289 6.30784L68.9959 12.2013L58.8629 6.30784C58.6478 6.17964 58.3687 6.25853 58.2416 6.47554L56.1317 10.1546C56.0043 10.3716 56.0826 10.6527 56.2981 10.7809L66.4311 16.6744V28.4613C66.4311 28.7128 66.6315 28.92 66.886 28.92H71.1009C71.3504 28.92 71.5562 28.7178 71.5562 28.4613V16.6744L81.6891 10.7809C81.9092 10.6527 81.9826 10.3716 81.8605 10.1546Z" fill="black"/>
</svg>
