<svg xmlns="http://www.w3.org/2000/svg" width="166" height="43"><g fill="none" fill-rule="evenodd"><path fill="#FF364D" d="M42.18 21.09c0 11.644-9.449 21.09-21.088 21.09C9.444 42.18 0 32.734 0 21.09 0 9.444 9.444 0 21.092 0 32.731 0 42.18 9.444 42.18 21.09"/><path fill="#FFFFFE" d="M35.234 20.547a7.967 7.967 0 0 1-5.022 4.946c-.72.234-1.5.373-2.305.4-.926.011-1.287-.121-2.119-.388.567 2.696 2.021 4.876 4.602 5.734a7.759 7.759 0 0 0 3.129-2.236c1.19-1.378 1.875-3.186 1.831-5.16l-.066-2.538a6.767 6.767 0 0 0-.05-.758"/><path fill="#FFFFFE" d="M22.934 26.668a8.026 8.026 0 0 1-.134-1.483v-9.449a6.99 6.99 0 0 0-.344-2.13 4.046 4.046 0 0 0-.227-.6 6.95 6.95 0 0 0-4.677-4.005c-.011-.006-.041-.007-.05-.012h-.095v16.196a8.04 8.04 0 0 0 8.04 8.043 8.08 8.08 0 0 0 2.698-.455c-2.662-.957-4.683-3.261-5.21-6.105"/><path fill="#FFFFFE" d="M14.518 26.668a7.918 7.918 0 0 1-.143-1.483v-9.449a7.02 7.02 0 0 0-.324-2.13 28.056 28.056 0 0 0-.225-.6 6.988 6.988 0 0 0-4.682-4.005c-.022-.006-.036-.007-.062-.012h-.09v16.196c0 4.445 3.605 8.043 8.046 8.043.951 0 1.85-.158 2.7-.455a8.065 8.065 0 0 1-5.22-6.105"/><path fill="#202050" d="M55.34 29.544c-2.238 0-3.503-1.352-3.503-3.64V11.1h3.162v14.51c0 .737.364 1.13 1.021 1.13h1.616v2.804H55.34Zm6.642-14.657c-1.143 0-1.946-.713-1.946-1.869 0-1.106.803-1.844 1.946-1.844 1.143 0 1.946.738 1.946 1.844 0 1.156-.803 1.87-1.946 1.87Zm-1.58 14.657V16.61h3.16v12.935h-3.16ZM75.99 35.2v-7.328h-.17c-.438.664-1.678 1.992-3.891 1.992-3.502 0-5.934-2.804-5.934-6.837 0-4.033 2.456-6.738 6.031-6.738 2.335 0 3.478 1.426 3.843 1.967h.17V16.61h3.113V35.2H75.99Zm-3.38-8.238c1.994 0 3.453-1.476 3.453-3.886 0-2.188-1.313-3.885-3.429-3.885-2.043 0-3.429 1.525-3.429 3.885 0 2.287 1.386 3.886 3.405 3.886Zm14.175 2.902c-2.87 0-4.645-2.041-4.645-4.796v-8.46h3.162v7.649c0 1.574 1.021 2.656 2.48 2.656 1.532 0 2.627-1.254 2.627-2.878V16.61h3.161v12.935h-3.015V27.97h-.195c-.51.96-1.775 1.894-3.575 1.894Zm11.722-14.977c-1.143 0-1.945-.713-1.945-1.869 0-1.106.802-1.844 1.945-1.844s1.946.738 1.946 1.844c0 1.156-.803 1.87-1.946 1.87Zm-1.58 14.657V16.61h3.161v12.935h-3.161Zm11.846.32c-3.575 0-6.03-2.705-6.03-6.714 0-4.058 2.431-6.861 5.933-6.861 2.213 0 3.454 1.328 3.891 1.992h.17V11.1h3.162v18.444h-3.113v-1.648h-.17c-.365.541-1.508 1.968-3.843 1.968Zm.608-2.877c2.116 0 3.43-1.722 3.43-3.886 0-2.435-1.46-3.91-3.454-3.91-2.018 0-3.405 1.623-3.405 3.91 0 2.336 1.387 3.886 3.43 3.886Zm12.168 2.557c-1.338 0-2.165-.86-2.165-2.385V11.1h1.46v16.059c0 .664.34 1.082.948 1.082h.535v1.303h-.778Zm5-12.788v12.788h-1.459V16.756h1.46Zm-.705-4.992c.705 0 1.192.492 1.192 1.156 0 .688-.487 1.205-1.192 1.205-.656 0-1.143-.517-1.143-1.205 0-.664.487-1.156 1.143-1.156ZM136.14 35.52c-3.088 0-4.985-1.623-5.374-3.91h1.386c.365 1.721 1.921 2.607 3.988 2.607 3.016 0 4.597-1.697 4.597-4.427v-2.779h-.146c-.414.96-1.873 2.853-4.718 2.853-3.721 0-6.202-2.78-6.202-6.69 0-3.959 2.48-6.738 6.105-6.738 2.772 0 4.304 1.771 4.766 2.902h.146v-2.582h1.46V29.79c0 3.615-2.335 5.73-6.008 5.73Zm-.28-6.984c2.99 0 4.766-2.435 4.766-5.361 0-3.271-1.994-5.386-4.791-5.386-2.87 0-4.791 2.213-4.791 5.386 0 3.221 1.921 5.36 4.815 5.36Zm9.705 1.008V11.1h1.46v7.771h.146c.559-1.303 2.042-2.435 4.11-2.435 2.942 0 4.79 2.19 4.79 4.919v8.19h-1.459v-8.092c0-2.115-1.605-3.64-3.672-3.64-2.189 0-3.915 1.698-3.915 3.862v7.87h-1.46Zm18.529 0c-2.286 0-3.721-1.303-3.721-3.836V18.01h-2.408v-1.254h2.48v-3.713h1.387v3.713h3.891v1.254h-3.891v7.673c0 1.623.73 2.558 2.359 2.558h1.41v1.303h-1.507Z"/></g></svg>